# xmcd
#
# Track frame offsets:
#	150
#	15680
#	29480
#	49820
#	59242
#	71710
#	87470
#	107865
#	120970
#	135761
#	150033
#	164460
#	175590
#	193536
#	206063
#	220212
#	234567
#	245936
#	267406
#	284788
#
# Disc length: 4096 seconds
#
# Revision: 0
# Processed by: cddbd v1.5.2PL0 Copyright (c) Steve Scherf et al.
# Submitted via: audiograbber 1.83.01
#
DISCID=2b0ffe14
DTITLE=TSP Country - TSP Country 016
DYEAR=2006
DGENRE=Country
TTITLE0=Somebody Stop Me  - Art Carter
TTITLE1=One Good Outlaw  - Jenna Torres
TTITLE2=Mustangs  - Lowell Stark
TTITLE3=I Thought Wrong  - Jenna Casey
TTITLE4=Girl Next Door  - Hl Tapley
TTITLE5=There큦 A Crown Up In Heaven Just For You - Bob Blackshear
TTITLE6=Another Day In My Life - Seth Turner
TTITLE7=Mama큦 Intensive Care  - Del York
TTITLE8=Angel큦 Heart  - Shelly Green
TTITLE9=That큦 What Girls Do  - Brandi Thornton
TTITLE10=It큦 A Long Road To Heaven  - Deav Farmer
TTITLE11=Scatch It  - Jim Cook and The Taylormacs
TTITLE12=Bad Boy  - Jenna Torres
TTITLE13=In God큦 Time  - Bob Blackshear
TTITLE14=Fast Lane  - Brandi Thornton
TTITLE15=Got It Going On  - David Lorrie Mcdonald
TTITLE16=Gone Too Long - Jim Cook and The Taylormacs
TTITLE17=Sweet Lullabye  - Lowell Stark
TTITLE18=Welcome To God큦 Grace  - Tom Sablatura And The Better Than Late Never
TTITLE18=Band
TTITLE19=Next Door To You  - Art Carter
EXTD=
EXTT0=
EXTT1=
EXTT2=
EXTT3=
EXTT4=
EXTT5=
EXTT6=
EXTT7=
EXTT8=
EXTT9=
EXTT10=
EXTT11=
EXTT12=
EXTT13=
EXTT14=
EXTT15=
EXTT16=
EXTT17=
EXTT18=
EXTT19=
PLAYORDER=
